<svg xmlns="http://www.w3.org/2000/svg" viewBox="0 0 32 32" id="apple-music">
  <path fill="#F5E6FD" d="M7,31c-3.31368,0 -6,-2.68632 -6,-6v-18c0,-3.31368 2.68632,-6 6,-6h18c3.31368,0 6,2.68632 6,6v18c0,3.31368 -2.68632,6 -6,6Z"></path>
  <path fill="#BD63F9" fill-rule="evenodd" d="M16,8c-4.4183,0 -8,3.5817 -8,8c0,4.4183 3.5817,8 8,8c4.4183,0 8,-3.5817 8,-8c0,-4.4183 -3.5817,-8 -8,-8Z"></path>
  <g fill="#D9A5FB" fill-rule="evenodd">
    <path d="M12.3056 18.2618c-.1636.1227-.2126.2497-.2126.3429 0 .0931.049.2201.2126.3428.1638.1228.4157.2153.7176.2153.3019 0 .5538-.0925.7176-.2153.1636-.1227.2126-.2497.2126-.3428 0-.0932-.049-.2202-.2126-.3429-.1638-.1228-.4157-.2153-.7176-.2153-.3019 0-.5538.0925-.7176.2153zm-.6697-.893c.3749-.2812.8672-.4386 1.3873-.4386.5201 0 1.0124.1574 1.3873.4386.3751.2813.6592.7125.6592 1.2359 0 .5233-.2841.9545-.6592 1.2358-.3749.2812-.8672.4386-1.3873.4386-.5201 0-1.0124-.1574-1.3873-.4386-.3751-.2813-.6592-.7125-.6592-1.2358 0-.5234.2841-.9546.6592-1.2359zM17.515 17.5176c-.1636.1228-.2127.2497-.2127.3429 0 .0932.0491.2201.2127.3428.1638.1228.4156.2153.7175.2153.302 0 .5538-.0925.7176-.2153.1636-.1227.2127-.2496.2127-.3428 0-.0932-.0491-.2201-.2127-.3429-.1638-.1228-.4156-.2153-.7176-.2153-.3019 0-.5537.0925-.7175.2153zm-.6698-.893c.3749-.2811.8673-.4386 1.3873-.4386.5201 0 1.0125.1575 1.3874.4386.375.2813.6592.7125.6592 1.2359 0 .5233-.2842.9545-.6592 1.2358-.3749.2812-.8673.4386-1.3874.4386-.52 0-1.0124-.1574-1.3873-.4386-.375-.2813-.6592-.7125-.6592-1.2358 0-.5234.2842-.9546.6592-1.2359z"></path>
    <path d="M20.0347,11.8175c0.1529,0.1039 0.2444,0.2767 0.2444,0.4616v5.6672c0,0.3083 -0.2499,0.5582 -0.5582,0.5582c-0.3082,0 -0.5581,-0.2499 -0.5581,-0.5582v-4.8462l-4.093,1.6192v3.8854c0,0.3082 -0.2499,0.5581 -0.5582,0.5581c-0.3082,0 -0.5581,-0.2499 -0.5581,-0.5581v-4.2648c0,-0.229 0.1399,-0.4348 0.3528,-0.519l5.2093,-2.0608c0.1719,-0.068 0.3662,-0.0465 0.5191,0.0574Z"></path>
  </g>
</svg>
